<svg xmlns="http://www.w3.org/2000/svg" xmlns:xlink="http://www.w3.org/1999/xlink" width="42" height="42" viewBox="0 0 42 42">
  <defs>
    <style>
      .cls-1 {
        fill: none;
      }

      .cls-2 {
        clip-path: url(#clip-path);
      }

      .cls-3 {
        fill: #ea847c;
      }
    </style>
    <clipPath id="clip-path">
      <rect class="cls-1" width="42" height="42"/>
    </clipPath>
  </defs>
  <g id="Folder" class="cls-2">
    <path id="Path_178" data-name="Path 178" class="cls-3" d="M0,28.68V2.583A2.684,2.684,0,0,1,.816.68,2.584,2.584,0,0,1,2.583,0H17.67a1.543,1.543,0,0,1,1.087.408,1.827,1.827,0,0,1,.816.951l1.359,3.806h18.35a2.684,2.684,0,0,1,1.9.816A2.468,2.468,0,0,1,42,7.883V28.816a2.684,2.684,0,0,1-.816,1.9,2.468,2.468,0,0,1-1.9.816H2.583a2.684,2.684,0,0,1-1.9-.816A3.662,3.662,0,0,1,0,28.68Z" transform="translate(0 2)"/>
    <rect id="Rectangle_1447" data-name="Rectangle 1447" class="cls-1" width="42" height="42"/>
  </g>
</svg>
