<svg xmlns="http://www.w3.org/2000/svg" width="67" height="46" viewBox="0 0 67 46">
  <defs>
    <style>
      .cls-1, .cls-3 {
        fill: none;
      }

      .cls-1 {
        stroke: #f58e81;
        stroke-linejoin: round;
        stroke-width: 3px;
      }

      .cls-2 {
        stroke: none;
      }
    </style>
  </defs>
  <g id="Group_1610" data-name="Group 1610" transform="translate(-277 -367)">
    <g id="Rectangle_1482" data-name="Rectangle 1482" class="cls-1" transform="translate(314 383)">
      <path class="cls-2" d="M12,0h6A12,12,0,0,1,30,12V28a2,2,0,0,1-2,2H12A12,12,0,0,1,0,18V12A12,12,0,0,1,12,0Z"/>
      <path class="cls-3" d="M12,1.5h6A10.5,10.5,0,0,1,28.5,12V28a.5.5,0,0,1-.5.5H12A10.5,10.5,0,0,1,1.5,18V12A10.5,10.5,0,0,1,12,1.5Z"/>
    </g>
    <g id="Rectangle_1483" data-name="Rectangle 1483" class="cls-1" transform="translate(277 367)">
      <path class="cls-2" d="M12,0h6A12,12,0,0,1,30,12v6A12,12,0,0,1,18,30H1a1,1,0,0,1-1-1V12A12,12,0,0,1,12,0Z"/>
      <path class="cls-3" d="M12,1.5h6A10.5,10.5,0,0,1,28.5,12v6A10.5,10.5,0,0,1,18,28.5H2a.5.5,0,0,1-.5-.5V12A10.5,10.5,0,0,1,12,1.5Z"/>
    </g>
  </g>
</svg>
