<svg xmlns="http://www.w3.org/2000/svg" xmlns:xlink="http://www.w3.org/1999/xlink" width="50.746" height="35.248" viewBox="0 0 50.746 35.248">
  <defs>
    <style>
      .cls-1 {
        fill: none;
      }

      .cls-2 {
        clip-path: url(#clip-path);
      }

      .cls-3 {
        fill: #ea847c;
      }
    </style>
    <clipPath id="clip-path">
      <rect class="cls-1" width="24.57" height="24.57"/>
    </clipPath>
  </defs>
  <g id="Group_1572" data-name="Group 1572" transform="translate(-163 -375.753)">
    <g id="Profile" class="cls-2" transform="translate(163 386.43)">
      <path id="Union_1" data-name="Union 1" class="cls-3" d="M0,24.57V21.5c0-3.379,5.528-6.143,12.285-6.143S24.57,18.12,24.57,21.5V24.57ZM6.142,6.143a6.142,6.142,0,1,1,6.143,6.142A6.143,6.143,0,0,1,6.142,6.143Z"/>
    </g>
    <g id="Profile-2" data-name="Profile" class="cls-2" transform="translate(189.176 375.753)">
      <path id="Union_1-2" data-name="Union 1" class="cls-3" d="M0,24.57V21.5c0-3.379,5.528-6.143,12.285-6.143S24.57,18.12,24.57,21.5V24.57ZM6.142,6.143a6.142,6.142,0,1,1,6.143,6.142A6.143,6.143,0,0,1,6.142,6.143Z"/>
    </g>
  </g>
</svg>
