<svg xmlns="http://www.w3.org/2000/svg" xmlns:xlink="http://www.w3.org/1999/xlink" width="40" height="40" viewBox="0 0 40 40">
  <defs>
    <style>
      .cls-1 {
        fill: none;
      }

      .cls-2 {
        clip-path: url(#clip-path);
      }

      .cls-3 {
        fill: #ea847c;
      }
    </style>
    <clipPath id="clip-path">
      <rect class="cls-1" width="40" height="40"/>
    </clipPath>
  </defs>
  <g id="Search" class="cls-2">
    <rect id="Rectangle_176" data-name="Rectangle 176" class="cls-1" width="16" height="16"/>
    <path id="Path_99" data-name="Path 99" class="cls-3" d="M39.9,36.387l-8.281-8.281a17.181,17.181,0,0,0,3.513-10.54A17.458,17.458,0,0,0,17.566,0,17.458,17.458,0,0,0,0,17.566,17.458,17.458,0,0,0,17.566,35.132a17.182,17.182,0,0,0,10.54-3.513L36.387,39.9ZM5.019,17.566A12.425,12.425,0,0,1,17.566,5.019,12.425,12.425,0,0,1,30.113,17.566,12.425,12.425,0,0,1,17.566,30.113,12.425,12.425,0,0,1,5.019,17.566Z"/>
  </g>
</svg>
